<?xml version="1.0" encoding="utf-8" standalone="no"?>
<!DOCTYPE svg PUBLIC "-//W3C//DTD SVG 1.1//EN"
  "http://www.w3.org/Graphics/SVG/1.1/DTD/svg11.dtd">
<!-- Created with matplotlib (http://matplotlib.org/) -->
<svg height="180pt" version="1.1" viewBox="0 0 288 180" width="288pt" xmlns="http://www.w3.org/2000/svg" xmlns:xlink="http://www.w3.org/1999/xlink">
 <defs>
  <style type="text/css">
*{stroke-linecap:butt;stroke-linejoin:round;}
  </style>
 </defs>
 <g id="figure_1">
  <g id="patch_1">
   <path d="M 0 180 
L 288 180 
L 288 0 
L 0 0 
z
" style="fill:#ffffff;"/>
  </g>
  <g id="axes_1">
   <g id="patch_2">
    <path d="M 26.3 138.04 
L 270.81 138.04 
L 270.81 14.76 
L 26.3 14.76 
z
" style="fill:#ffffff;"/>
   </g>
   <g id="PolyCollection_1">
    <path clip-path="url(#p886b88b159)" d="M 56.86375 118.419821 
L 56.86375 123.288719 
L 59.512608 123.288719 
L 62.161467 123.288719 
L 64.810325 123.288719 
L 67.459183 123.288719 
L 70.108042 123.288639 
L 72.7569 123.286499 
L 75.405758 123.274185 
L 78.054617 123.237174 
L 80.703475 123.156717 
L 83.352333 123.013235 
L 86.001192 122.788912 
L 88.65005 122.484269 
L 91.298908 122.102917 
L 93.947767 121.624369 
L 96.596625 121.04996 
L 99.245483 120.385096 
L 101.894342 119.638307 
L 104.5432 118.82031 
L 107.192058 117.943341 
L 109.840917 117.020555 
L 112.489775 116.065429 
L 115.138633 115.091007 
L 117.787492 114.109459 
L 120.43635 113.13187 
L 123.085208 112.168023 
L 125.734067 111.226189 
L 128.382925 110.312993 
L 131.031783 109.43391 
L 133.680642 108.593135 
L 136.3295 107.793546 
L 138.978358 107.037252 
L 141.627217 106.325456 
L 144.276075 105.658303 
L 146.924933 105.035548 
L 149.573792 104.45631 
L 152.22265 103.919081 
L 154.871508 103.422296 
L 157.520367 102.964114 
L 160.169225 102.542391 
L 162.818083 102.155123 
L 165.466942 101.800225 
L 168.1158 101.475443 
L 170.764658 101.178746 
L 173.413517 100.908092 
L 176.062375 100.699654 
L 178.711233 100.527337 
L 181.360092 100.372989 
L 184.00895 100.234985 
L 186.657808 100.111863 
L 189.306667 100.002178 
L 191.955525 99.904582 
L 194.604383 99.81769 
L 197.253242 99.740498 
L 199.9021 99.671772 
L 202.550958 99.610802 
L 205.199817 99.556529 
L 207.848675 99.508436 
L 210.497533 99.465656 
L 213.146392 99.427786 
L 215.79525 99.394131 
L 218.444108 99.364367 
L 221.092967 99.337934 
L 223.741825 99.314526 
L 226.390683 99.29377 
L 229.039542 99.275385 
L 231.6884 99.259123 
L 234.337258 99.244699 
L 236.986117 99.231911 
L 239.634975 99.22057 
L 242.283833 99.210517 
L 244.932692 99.201624 
L 247.58155 99.193787 
L 250.230408 99.186934 
L 252.879267 99.180982 
L 255.528125 99.175796 
L 258.176983 99.171277 
L 260.825842 99.167321 
L 263.4747 99.163824 
L 266.123558 99.16085 
L 268.772417 99.158228 
L 271.421275 99.155874 
L 274.070133 99.153703 
L 276.718992 99.151922 
L 279.36785 99.150373 
L 282.016708 99.148995 
L 284.665567 99.147741 
L 287.314425 99.146666 
L 289.963283 99.145718 
L 292.612142 99.144852 
L 295.261 99.144039 
L 297.909858 99.143334 
L 300.558717 99.14272 
L 303.207575 99.142161 
L 305.856433 99.141644 
L 308.505292 99.141183 
L 311.15415 99.140777 
L 313.803008 99.140406 
L 316.451867 99.140063 
L 319.100725 99.139758 
L 321.749583 99.139498 
L 321.749583 78.20495 
L 321.749583 78.20495 
L 319.100725 78.208502 
L 316.451867 78.212384 
L 313.803008 78.216631 
L 311.15415 78.221267 
L 308.505292 78.226363 
L 305.856433 78.231956 
L 303.207575 78.238087 
L 300.558717 78.244804 
L 297.909858 78.252163 
L 295.261 78.260251 
L 292.612142 78.269093 
L 289.963283 78.278772 
L 287.314425 78.289445 
L 284.665567 78.301131 
L 282.016708 78.313918 
L 279.36785 78.328011 
L 276.718992 78.343455 
L 274.070133 78.360351 
L 271.421275 78.378954 
L 268.772417 78.39937 
L 266.123558 78.421723 
L 263.4747 78.446284 
L 260.825842 78.473272 
L 258.176983 78.502903 
L 255.528125 78.535468 
L 252.879267 78.571213 
L 250.230408 78.610428 
L 247.58155 78.65343 
L 244.932692 78.700586 
L 242.283833 78.752302 
L 239.634975 78.808996 
L 236.986117 78.871159 
L 234.337258 78.9393 
L 231.6884 79.013969 
L 229.039542 79.095761 
L 226.390683 79.185341 
L 223.741825 79.283419 
L 221.092967 79.390772 
L 218.444108 79.508253 
L 215.79525 79.636768 
L 213.146392 79.777306 
L 210.497533 79.930944 
L 207.848675 80.098837 
L 205.199817 80.282226 
L 202.550958 80.482447 
L 199.9021 80.700942 
L 197.253242 80.939257 
L 194.604383 81.199037 
L 191.955525 81.482044 
L 189.306667 81.790151 
L 186.657808 82.125328 
L 184.00895 82.489654 
L 181.360092 82.885301 
L 178.711233 83.314521 
L 176.062375 83.779662 
L 173.413517 84.283174 
L 170.764658 84.82751 
L 168.1158 85.415244 
L 165.466942 86.048877 
L 162.818083 86.686387 
L 160.169225 87.342513 
L 157.520367 88.053713 
L 154.871508 88.822916 
L 152.22265 89.65278 
L 149.573792 90.545583 
L 146.924933 91.503407 
L 144.276075 92.52744 
L 141.627217 93.618117 
L 138.978358 94.775291 
L 136.3295 95.997806 
L 133.680642 97.283342 
L 131.031783 98.627901 
L 128.382925 100.02553 
L 125.734067 101.468844 
L 123.085208 102.948687 
L 120.43635 104.453677 
L 117.787492 105.970265 
L 115.138633 107.44938 
L 112.489775 108.891222 
L 109.840917 110.289901 
L 107.192058 111.626837 
L 104.5432 112.832704 
L 101.894342 113.918515 
L 99.245483 114.894558 
L 96.596625 115.750148 
L 93.947767 116.477965 
L 91.298908 117.075115 
L 88.65005 117.543895 
L 86.001192 117.892031 
L 83.352333 118.132685 
L 80.703475 118.283989 
L 78.054617 118.367416 
L 75.405758 118.405279 
L 72.7569 118.417631 
L 70.108042 118.419744 
L 67.459183 118.419821 
L 64.810325 118.419821 
L 62.161467 118.419821 
L 59.512608 118.419821 
L 56.86375 118.419821 
z
" style="fill:#1f77b4;fill-opacity:0.2;"/>
   </g>
   <g id="PolyCollection_2">
    <path clip-path="url(#p886b88b159)" d="M 56.86375 118.386978 
L 56.86375 122.899494 
L 59.512608 122.899494 
L 62.161467 122.899494 
L 64.810325 122.899494 
L 67.459183 122.899494 
L 70.108042 122.899413 
L 72.7569 122.897221 
L 75.405758 122.88444 
L 78.054617 122.845778 
L 80.703475 122.761278 
L 83.352333 122.609901 
L 86.001192 122.372435 
L 88.65005 122.033777 
L 91.298908 121.601263 
L 93.947767 121.098303 
L 96.596625 120.497265 
L 99.245483 119.804025 
L 101.894342 119.027804 
L 104.5432 118.180851 
L 107.192058 117.27706 
L 109.840917 116.330441 
L 112.489775 115.354809 
L 115.138633 114.363975 
L 117.787492 113.370883 
L 120.43635 112.386467 
L 123.085208 111.420144 
L 125.734067 110.480152 
L 128.382925 109.573289 
L 131.031783 108.704748 
L 133.680642 107.878191 
L 136.3295 107.096168 
L 138.978358 106.360385 
L 141.627217 105.671421 
L 144.276075 105.028937 
L 146.924933 104.432019 
L 149.573792 103.879347 
L 152.22265 103.369321 
L 154.871508 102.900112 
L 157.520367 102.469522 
L 160.169225 102.075278 
L 162.818083 101.715084 
L 165.466942 101.386629 
L 168.1158 101.087631 
L 170.764658 100.815866 
L 173.413517 100.569202 
L 176.062375 100.345611 
L 178.711233 100.143147 
L 181.360092 99.959993 
L 184.00895 99.794457 
L 186.657808 99.644735 
L 189.306667 99.509556 
L 191.955525 99.387642 
L 194.604383 99.277843 
L 197.253242 99.179108 
L 199.9021 99.090426 
L 202.550958 99.010724 
L 205.199817 98.939078 
L 207.848675 98.874719 
L 210.497533 98.816833 
L 213.146392 98.764853 
L 215.79525 98.718095 
L 218.444108 98.676124 
L 221.092967 98.638378 
L 223.741825 98.604507 
L 226.390683 98.574058 
L 229.039542 98.546745 
L 231.6884 98.522181 
L 234.337258 98.500128 
L 236.986117 98.480311 
L 239.634975 98.462518 
L 242.283833 98.446546 
L 244.932692 98.432183 
L 247.58155 98.419269 
L 250.230408 98.407656 
L 252.879267 98.397217 
L 255.528125 98.387849 
L 258.176983 98.379464 
L 260.825842 98.371999 
L 263.4747 98.365364 
L 266.123558 98.359452 
L 268.772417 98.354174 
L 271.421275 98.349438 
L 274.070133 98.345229 
L 276.718992 98.34149 
L 279.36785 98.338116 
L 282.016708 98.335033 
L 284.665567 98.332333 
L 287.314425 98.32991 
L 289.963283 98.327707 
L 292.612142 98.325695 
L 295.261 98.323932 
L 297.909858 98.322338 
L 300.558717 98.320886 
L 303.207575 98.319574 
L 305.856433 98.318411 
L 308.505292 98.31736 
L 311.15415 98.316401 
L 313.803008 98.315545 
L 316.451867 98.31478 
L 319.100725 98.314088 
L 321.749583 98.313458 
L 321.749583 77.196767 
L 321.749583 77.196767 
L 319.100725 77.198415 
L 316.451867 77.200244 
L 313.803008 77.202271 
L 311.15415 77.204531 
L 308.505292 77.20705 
L 305.856433 77.209853 
L 303.207575 77.212975 
L 300.558717 77.216454 
L 297.909858 77.220333 
L 295.261 77.224656 
L 292.612142 77.229478 
L 289.963283 77.234854 
L 287.314425 77.240843 
L 284.665567 77.247519 
L 282.016708 77.254963 
L 279.36785 77.263262 
L 276.718992 77.272504 
L 274.070133 77.282802 
L 271.421275 77.294275 
L 268.772417 77.307031 
L 266.123558 77.321236 
L 263.4747 77.337052 
L 260.825842 77.354622 
L 258.176983 77.374181 
L 255.528125 77.395939 
L 252.879267 77.420081 
L 250.230408 77.446933 
L 247.58155 77.476764 
L 244.932692 77.509816 
L 242.283833 77.546534 
L 239.634975 77.587269 
L 236.986117 77.632398 
L 234.337258 77.682406 
L 231.6884 77.737796 
L 229.039542 77.799074 
L 226.390683 77.867027 
L 223.741825 77.942282 
L 221.092967 78.025582 
L 218.444108 78.11772 
L 215.79525 78.219662 
L 213.146392 78.332431 
L 210.497533 78.457154 
L 207.848675 78.594993 
L 205.199817 78.74711 
L 202.550958 78.914845 
L 199.9021 79.099716 
L 197.253242 79.30319 
L 194.604383 79.527132 
L 191.955525 79.773373 
L 189.306667 80.044038 
L 186.657808 80.341382 
L 184.00895 80.667736 
L 181.360092 81.025706 
L 178.711233 81.417902 
L 176.062375 81.846752 
L 173.413517 82.314812 
L 170.764658 82.824913 
L 168.1158 83.380404 
L 165.466942 83.984348 
L 162.818083 84.639792 
L 160.169225 85.349721 
L 157.520367 86.117064 
L 154.871508 86.944646 
L 152.22265 87.834918 
L 149.573792 88.789708 
L 146.924933 89.810468 
L 144.276075 90.898507 
L 141.627217 92.054049 
L 138.978358 93.275988 
L 136.3295 94.562223 
L 133.680642 95.909988 
L 131.031783 97.31447 
L 128.382925 98.768954 
L 125.734067 100.265397 
L 123.085208 101.793818 
L 120.43635 103.342071 
L 117.787492 104.896032 
L 115.138633 106.440057 
L 112.489775 107.957092 
L 109.840917 109.428495 
L 107.192058 110.834635 
L 104.5432 112.156586 
L 101.894342 113.3765 
L 99.245483 114.477734 
L 96.596625 115.446428 
L 93.947767 116.273479 
L 91.298908 116.955056 
L 88.65005 117.492433 
L 86.001192 117.857577 
L 83.352333 118.099015 
L 80.703475 118.250784 
L 78.054617 118.334447 
L 75.405758 118.372406 
L 72.7569 118.384784 
L 70.108042 118.386901 
L 67.459183 118.386978 
L 64.810325 118.386978 
L 62.161467 118.386978 
L 59.512608 118.386978 
L 56.86375 118.386978 
z
" style="fill:#ff7f0e;fill-opacity:0.2;"/>
   </g>
   <g id="matplotlib.axis_1">
    <g id="xtick_1">
     <g id="line2d_1">
      <defs>
       <path d="M 0 0 
L 0 3.5 
" id="ma7f1f5c2d5" style="stroke:#000000;stroke-width:0.8;"/>
      </defs>
      <g>
       <use style="stroke:#000000;stroke-width:0.8;" x="67.051667" xlink:href="#ma7f1f5c2d5" y="138.04"/>
      </g>
     </g>
     <g id="text_1">
      <!-- 0 -->
      <defs>
       <path d="M 31.78125 66.40625 
Q 24.171875 66.40625 20.328125 58.90625 
Q 16.5 51.421875 16.5 36.375 
Q 16.5 21.390625 20.328125 13.890625 
Q 24.171875 6.390625 31.78125 6.390625 
Q 39.453125 6.390625 43.28125 13.890625 
Q 47.125 21.390625 47.125 36.375 
Q 47.125 51.421875 43.28125 58.90625 
Q 39.453125 66.40625 31.78125 66.40625 
z
M 31.78125 74.21875 
Q 44.046875 74.21875 50.515625 64.515625 
Q 56.984375 54.828125 56.984375 36.375 
Q 56.984375 17.96875 50.515625 8.265625 
Q 44.046875 -1.421875 31.78125 -1.421875 
Q 19.53125 -1.421875 13.0625 8.265625 
Q 6.59375 17.96875 6.59375 36.375 
Q 6.59375 54.828125 13.0625 64.515625 
Q 19.53125 74.21875 31.78125 74.21875 
z
" id="DejaVuSans-30"/>
      </defs>
      <g transform="translate(63.870417 152.638438)scale(0.1 -0.1)">
       <use xlink:href="#DejaVuSans-30"/>
      </g>
     </g>
    </g>
    <g id="xtick_2">
     <g id="line2d_2">
      <g>
       <use style="stroke:#000000;stroke-width:0.8;" x="117.99125" xlink:href="#ma7f1f5c2d5" y="138.04"/>
      </g>
     </g>
     <g id="text_2">
      <!-- 5 -->
      <defs>
       <path d="M 10.796875 72.90625 
L 49.515625 72.90625 
L 49.515625 64.59375 
L 19.828125 64.59375 
L 19.828125 46.734375 
Q 21.96875 47.46875 24.109375 47.828125 
Q 26.265625 48.1875 28.421875 48.1875 
Q 40.625 48.1875 47.75 41.5 
Q 54.890625 34.8125 54.890625 23.390625 
Q 54.890625 11.625 47.5625 5.09375 
Q 40.234375 -1.421875 26.90625 -1.421875 
Q 22.3125 -1.421875 17.546875 -0.640625 
Q 12.796875 0.140625 7.71875 1.703125 
L 7.71875 11.625 
Q 12.109375 9.234375 16.796875 8.0625 
Q 21.484375 6.890625 26.703125 6.890625 
Q 35.15625 6.890625 40.078125 11.328125 
Q 45.015625 15.765625 45.015625 23.390625 
Q 45.015625 31 40.078125 35.4375 
Q 35.15625 39.890625 26.703125 39.890625 
Q 22.75 39.890625 18.8125 39.015625 
Q 14.890625 38.140625 10.796875 36.28125 
z
" id="DejaVuSans-35"/>
      </defs>
      <g transform="translate(114.81 152.638438)scale(0.1 -0.1)">
       <use xlink:href="#DejaVuSans-35"/>
      </g>
     </g>
    </g>
    <g id="xtick_3">
     <g id="line2d_3">
      <g>
       <use style="stroke:#000000;stroke-width:0.8;" x="168.930833" xlink:href="#ma7f1f5c2d5" y="138.04"/>
      </g>
     </g>
     <g id="text_3">
      <!-- 10 -->
      <defs>
       <path d="M 12.40625 8.296875 
L 28.515625 8.296875 
L 28.515625 63.921875 
L 10.984375 60.40625 
L 10.984375 69.390625 
L 28.421875 72.90625 
L 38.28125 72.90625 
L 38.28125 8.296875 
L 54.390625 8.296875 
L 54.390625 0 
L 12.40625 0 
z
" id="DejaVuSans-31"/>
      </defs>
      <g transform="translate(162.568333 152.638438)scale(0.1 -0.1)">
       <use xlink:href="#DejaVuSans-31"/>
       <use x="63.623047" xlink:href="#DejaVuSans-30"/>
      </g>
     </g>
    </g>
    <g id="xtick_4">
     <g id="line2d_4">
      <g>
       <use style="stroke:#000000;stroke-width:0.8;" x="219.870417" xlink:href="#ma7f1f5c2d5" y="138.04"/>
      </g>
     </g>
     <g id="text_4">
      <!-- 15 -->
      <g transform="translate(213.507917 152.638438)scale(0.1 -0.1)">
       <use xlink:href="#DejaVuSans-31"/>
       <use x="63.623047" xlink:href="#DejaVuSans-35"/>
      </g>
     </g>
    </g>
    <g id="xtick_5">
     <g id="line2d_5">
      <g>
       <use style="stroke:#000000;stroke-width:0.8;" x="270.81" xlink:href="#ma7f1f5c2d5" y="138.04"/>
      </g>
     </g>
     <g id="text_5">
      <!-- 20 -->
      <defs>
       <path d="M 19.1875 8.296875 
L 53.609375 8.296875 
L 53.609375 0 
L 7.328125 0 
L 7.328125 8.296875 
Q 12.9375 14.109375 22.625 23.890625 
Q 32.328125 33.6875 34.8125 36.53125 
Q 39.546875 41.84375 41.421875 45.53125 
Q 43.3125 49.21875 43.3125 52.78125 
Q 43.3125 58.59375 39.234375 62.25 
Q 35.15625 65.921875 28.609375 65.921875 
Q 23.96875 65.921875 18.8125 64.3125 
Q 13.671875 62.703125 7.8125 59.421875 
L 7.8125 69.390625 
Q 13.765625 71.78125 18.9375 73 
Q 24.125 74.21875 28.421875 74.21875 
Q 39.75 74.21875 46.484375 68.546875 
Q 53.21875 62.890625 53.21875 53.421875 
Q 53.21875 48.921875 51.53125 44.890625 
Q 49.859375 40.875 45.40625 35.40625 
Q 44.1875 33.984375 37.640625 27.21875 
Q 31.109375 20.453125 19.1875 8.296875 
z
" id="DejaVuSans-32"/>
      </defs>
      <g transform="translate(264.4475 152.638438)scale(0.1 -0.1)">
       <use xlink:href="#DejaVuSans-32"/>
       <use x="63.623047" xlink:href="#DejaVuSans-30"/>
      </g>
     </g>
    </g>
    <g id="text_6">
     <!-- time (minutes) -->
     <defs>
      <path d="M 18.3125 70.21875 
L 18.3125 54.6875 
L 36.8125 54.6875 
L 36.8125 47.703125 
L 18.3125 47.703125 
L 18.3125 18.015625 
Q 18.3125 11.328125 20.140625 9.421875 
Q 21.96875 7.515625 27.59375 7.515625 
L 36.8125 7.515625 
L 36.8125 0 
L 27.59375 0 
Q 17.1875 0 13.234375 3.875 
Q 9.28125 7.765625 9.28125 18.015625 
L 9.28125 47.703125 
L 2.6875 47.703125 
L 2.6875 54.6875 
L 9.28125 54.6875 
L 9.28125 70.21875 
z
" id="DejaVuSans-74"/>
      <path d="M 9.421875 54.6875 
L 18.40625 54.6875 
L 18.40625 0 
L 9.421875 0 
z
M 9.421875 75.984375 
L 18.40625 75.984375 
L 18.40625 64.59375 
L 9.421875 64.59375 
z
" id="DejaVuSans-69"/>
      <path d="M 52 44.1875 
Q 55.375 50.25 60.0625 53.125 
Q 64.75 56 71.09375 56 
Q 79.640625 56 84.28125 50.015625 
Q 88.921875 44.046875 88.921875 33.015625 
L 88.921875 0 
L 79.890625 0 
L 79.890625 32.71875 
Q 79.890625 40.578125 77.09375 44.375 
Q 74.3125 48.1875 68.609375 48.1875 
Q 61.625 48.1875 57.5625 43.546875 
Q 53.515625 38.921875 53.515625 30.90625 
L 53.515625 0 
L 44.484375 0 
L 44.484375 32.71875 
Q 44.484375 40.625 41.703125 44.40625 
Q 38.921875 48.1875 33.109375 48.1875 
Q 26.21875 48.1875 22.15625 43.53125 
Q 18.109375 38.875 18.109375 30.90625 
L 18.109375 0 
L 9.078125 0 
L 9.078125 54.6875 
L 18.109375 54.6875 
L 18.109375 46.1875 
Q 21.1875 51.21875 25.484375 53.609375 
Q 29.78125 56 35.6875 56 
Q 41.65625 56 45.828125 52.96875 
Q 50 49.953125 52 44.1875 
z
" id="DejaVuSans-6d"/>
      <path d="M 56.203125 29.59375 
L 56.203125 25.203125 
L 14.890625 25.203125 
Q 15.484375 15.921875 20.484375 11.0625 
Q 25.484375 6.203125 34.421875 6.203125 
Q 39.59375 6.203125 44.453125 7.46875 
Q 49.3125 8.734375 54.109375 11.28125 
L 54.109375 2.78125 
Q 49.265625 0.734375 44.1875 -0.34375 
Q 39.109375 -1.421875 33.890625 -1.421875 
Q 20.796875 -1.421875 13.15625 6.1875 
Q 5.515625 13.8125 5.515625 26.8125 
Q 5.515625 40.234375 12.765625 48.109375 
Q 20.015625 56 32.328125 56 
Q 43.359375 56 49.78125 48.890625 
Q 56.203125 41.796875 56.203125 29.59375 
z
M 47.21875 32.234375 
Q 47.125 39.59375 43.09375 43.984375 
Q 39.0625 48.390625 32.421875 48.390625 
Q 24.90625 48.390625 20.390625 44.140625 
Q 15.875 39.890625 15.1875 32.171875 
z
" id="DejaVuSans-65"/>
      <path id="DejaVuSans-20"/>
      <path d="M 31 75.875 
Q 24.46875 64.65625 21.28125 53.65625 
Q 18.109375 42.671875 18.109375 31.390625 
Q 18.109375 20.125 21.3125 9.0625 
Q 24.515625 -2 31 -13.1875 
L 23.1875 -13.1875 
Q 15.875 -1.703125 12.234375 9.375 
Q 8.59375 20.453125 8.59375 31.390625 
Q 8.59375 42.28125 12.203125 53.3125 
Q 15.828125 64.359375 23.1875 75.875 
z
" id="DejaVuSans-28"/>
      <path d="M 54.890625 33.015625 
L 54.890625 0 
L 45.90625 0 
L 45.90625 32.71875 
Q 45.90625 40.484375 42.875 44.328125 
Q 39.84375 48.1875 33.796875 48.1875 
Q 26.515625 48.1875 22.3125 43.546875 
Q 18.109375 38.921875 18.109375 30.90625 
L 18.109375 0 
L 9.078125 0 
L 9.078125 54.6875 
L 18.109375 54.6875 
L 18.109375 46.1875 
Q 21.34375 51.125 25.703125 53.5625 
Q 30.078125 56 35.796875 56 
Q 45.21875 56 50.046875 50.171875 
Q 54.890625 44.34375 54.890625 33.015625 
z
" id="DejaVuSans-6e"/>
      <path d="M 8.5 21.578125 
L 8.5 54.6875 
L 17.484375 54.6875 
L 17.484375 21.921875 
Q 17.484375 14.15625 20.5 10.265625 
Q 23.53125 6.390625 29.59375 6.390625 
Q 36.859375 6.390625 41.078125 11.03125 
Q 45.3125 15.671875 45.3125 23.6875 
L 45.3125 54.6875 
L 54.296875 54.6875 
L 54.296875 0 
L 45.3125 0 
L 45.3125 8.40625 
Q 42.046875 3.421875 37.71875 1 
Q 33.40625 -1.421875 27.6875 -1.421875 
Q 18.265625 -1.421875 13.375 4.4375 
Q 8.5 10.296875 8.5 21.578125 
z
M 31.109375 56 
z
" id="DejaVuSans-75"/>
      <path d="M 44.28125 53.078125 
L 44.28125 44.578125 
Q 40.484375 46.53125 36.375 47.5 
Q 32.28125 48.484375 27.875 48.484375 
Q 21.1875 48.484375 17.84375 46.4375 
Q 14.5 44.390625 14.5 40.28125 
Q 14.5 37.15625 16.890625 35.375 
Q 19.28125 33.59375 26.515625 31.984375 
L 29.59375 31.296875 
Q 39.15625 29.25 43.1875 25.515625 
Q 47.21875 21.78125 47.21875 15.09375 
Q 47.21875 7.46875 41.1875 3.015625 
Q 35.15625 -1.421875 24.609375 -1.421875 
Q 20.21875 -1.421875 15.453125 -0.5625 
Q 10.6875 0.296875 5.421875 2 
L 5.421875 11.28125 
Q 10.40625 8.6875 15.234375 7.390625 
Q 20.0625 6.109375 24.8125 6.109375 
Q 31.15625 6.109375 34.5625 8.28125 
Q 37.984375 10.453125 37.984375 14.40625 
Q 37.984375 18.0625 35.515625 20.015625 
Q 33.0625 21.96875 24.703125 23.78125 
L 21.578125 24.515625 
Q 13.234375 26.265625 9.515625 29.90625 
Q 5.8125 33.546875 5.8125 39.890625 
Q 5.8125 47.609375 11.28125 51.796875 
Q 16.75 56 26.8125 56 
Q 31.78125 56 36.171875 55.265625 
Q 40.578125 54.546875 44.28125 53.078125 
z
" id="DejaVuSans-73"/>
      <path d="M 8.015625 75.875 
L 15.828125 75.875 
Q 23.140625 64.359375 26.78125 53.3125 
Q 30.421875 42.28125 30.421875 31.390625 
Q 30.421875 20.453125 26.78125 9.375 
Q 23.140625 -1.703125 15.828125 -13.1875 
L 8.015625 -13.1875 
Q 14.5 -2 17.703125 9.0625 
Q 20.90625 20.125 20.90625 31.390625 
Q 20.90625 42.671875 17.703125 53.65625 
Q 14.5 64.65625 8.015625 75.875 
z
" id="DejaVuSans-29"/>
     </defs>
     <g transform="translate(111.53 166.316563)scale(0.1 -0.1)">
      <use xlink:href="#DejaVuSans-74"/>
      <use x="39.208984" xlink:href="#DejaVuSans-69"/>
      <use x="66.992188" xlink:href="#DejaVuSans-6d"/>
      <use x="164.404297" xlink:href="#DejaVuSans-65"/>
      <use x="225.927734" xlink:href="#DejaVuSans-20"/>
      <use x="257.714844" xlink:href="#DejaVuSans-28"/>
      <use x="296.728516" xlink:href="#DejaVuSans-6d"/>
      <use x="394.140625" xlink:href="#DejaVuSans-69"/>
      <use x="421.923828" xlink:href="#DejaVuSans-6e"/>
      <use x="485.302734" xlink:href="#DejaVuSans-75"/>
      <use x="548.681641" xlink:href="#DejaVuSans-74"/>
      <use x="587.890625" xlink:href="#DejaVuSans-65"/>
      <use x="649.414062" xlink:href="#DejaVuSans-73"/>
      <use x="701.513672" xlink:href="#DejaVuSans-29"/>
     </g>
    </g>
   </g>
   <g id="matplotlib.axis_2">
    <g id="ytick_1">
     <g id="line2d_6">
      <defs>
       <path d="M 0 0 
L -3.5 0 
" id="m1573a1c82f" style="stroke:#000000;stroke-width:0.8;"/>
      </defs>
      <g>
       <use style="stroke:#000000;stroke-width:0.8;" x="56.86375" xlink:href="#m1573a1c82f" y="126.832727"/>
      </g>
     </g>
     <g id="text_7">
      <!-- 0.00 -->
      <defs>
       <path d="M 10.6875 12.40625 
L 21 12.40625 
L 21 0 
L 10.6875 0 
z
" id="DejaVuSans-2e"/>
      </defs>
      <g transform="translate(27.598125 130.631946)scale(0.1 -0.1)">
       <use xlink:href="#DejaVuSans-30"/>
       <use x="63.623047" xlink:href="#DejaVuSans-2e"/>
       <use x="95.410156" xlink:href="#DejaVuSans-30"/>
       <use x="159.033203" xlink:href="#DejaVuSans-30"/>
      </g>
     </g>
    </g>
    <g id="ytick_2">
     <g id="line2d_7">
      <g>
       <use style="stroke:#000000;stroke-width:0.8;" x="56.86375" xlink:href="#m1573a1c82f" y="98.814545"/>
      </g>
     </g>
     <g id="text_8">
      <!-- 0.05 -->
      <g transform="translate(27.598125 102.613764)scale(0.1 -0.1)">
       <use xlink:href="#DejaVuSans-30"/>
       <use x="63.623047" xlink:href="#DejaVuSans-2e"/>
       <use x="95.410156" xlink:href="#DejaVuSans-30"/>
       <use x="159.033203" xlink:href="#DejaVuSans-35"/>
      </g>
     </g>
    </g>
    <g id="ytick_3">
     <g id="line2d_8">
      <g>
       <use style="stroke:#000000;stroke-width:0.8;" x="56.86375" xlink:href="#m1573a1c82f" y="70.796364"/>
      </g>
     </g>
     <g id="text_9">
      <!-- 0.10 -->
      <g transform="translate(27.598125 74.595582)scale(0.1 -0.1)">
       <use xlink:href="#DejaVuSans-30"/>
       <use x="63.623047" xlink:href="#DejaVuSans-2e"/>
       <use x="95.410156" xlink:href="#DejaVuSans-31"/>
       <use x="159.033203" xlink:href="#DejaVuSans-30"/>
      </g>
     </g>
    </g>
    <g id="ytick_4">
     <g id="line2d_9">
      <g>
       <use style="stroke:#000000;stroke-width:0.8;" x="56.86375" xlink:href="#m1573a1c82f" y="42.778182"/>
      </g>
     </g>
     <g id="text_10">
      <!-- 0.15 -->
      <g transform="translate(27.598125 46.577401)scale(0.1 -0.1)">
       <use xlink:href="#DejaVuSans-30"/>
       <use x="63.623047" xlink:href="#DejaVuSans-2e"/>
       <use x="95.410156" xlink:href="#DejaVuSans-31"/>
       <use x="159.033203" xlink:href="#DejaVuSans-35"/>
      </g>
     </g>
    </g>
    <g id="ytick_5">
     <g id="line2d_10">
      <g>
       <use style="stroke:#000000;stroke-width:0.8;" x="56.86375" xlink:href="#m1573a1c82f" y="14.76"/>
      </g>
     </g>
     <g id="text_11">
      <!-- 0.20 -->
      <g transform="translate(27.598125 18.559219)scale(0.1 -0.1)">
       <use xlink:href="#DejaVuSans-30"/>
       <use x="63.623047" xlink:href="#DejaVuSans-2e"/>
       <use x="95.410156" xlink:href="#DejaVuSans-32"/>
       <use x="159.033203" xlink:href="#DejaVuSans-30"/>
      </g>
     </g>
    </g>
    <g id="text_12">
     <!-- pSUB/total -->
     <defs>
      <path d="M 18.109375 8.203125 
L 18.109375 -20.796875 
L 9.078125 -20.796875 
L 9.078125 54.6875 
L 18.109375 54.6875 
L 18.109375 46.390625 
Q 20.953125 51.265625 25.265625 53.625 
Q 29.59375 56 35.59375 56 
Q 45.5625 56 51.78125 48.09375 
Q 58.015625 40.1875 58.015625 27.296875 
Q 58.015625 14.40625 51.78125 6.484375 
Q 45.5625 -1.421875 35.59375 -1.421875 
Q 29.59375 -1.421875 25.265625 0.953125 
Q 20.953125 3.328125 18.109375 8.203125 
z
M 48.6875 27.296875 
Q 48.6875 37.203125 44.609375 42.84375 
Q 40.53125 48.484375 33.40625 48.484375 
Q 26.265625 48.484375 22.1875 42.84375 
Q 18.109375 37.203125 18.109375 27.296875 
Q 18.109375 17.390625 22.1875 11.75 
Q 26.265625 6.109375 33.40625 6.109375 
Q 40.53125 6.109375 44.609375 11.75 
Q 48.6875 17.390625 48.6875 27.296875 
z
" id="DejaVuSans-70"/>
      <path d="M 53.515625 70.515625 
L 53.515625 60.890625 
Q 47.90625 63.578125 42.921875 64.890625 
Q 37.9375 66.21875 33.296875 66.21875 
Q 25.25 66.21875 20.875 63.09375 
Q 16.5 59.96875 16.5 54.203125 
Q 16.5 49.359375 19.40625 46.890625 
Q 22.3125 44.4375 30.421875 42.921875 
L 36.375 41.703125 
Q 47.40625 39.59375 52.65625 34.296875 
Q 57.90625 29 57.90625 20.125 
Q 57.90625 9.515625 50.796875 4.046875 
Q 43.703125 -1.421875 29.984375 -1.421875 
Q 24.8125 -1.421875 18.96875 -0.25 
Q 13.140625 0.921875 6.890625 3.21875 
L 6.890625 13.375 
Q 12.890625 10.015625 18.65625 8.296875 
Q 24.421875 6.59375 29.984375 6.59375 
Q 38.421875 6.59375 43.015625 9.90625 
Q 47.609375 13.234375 47.609375 19.390625 
Q 47.609375 24.75 44.3125 27.78125 
Q 41.015625 30.8125 33.5 32.328125 
L 27.484375 33.5 
Q 16.453125 35.6875 11.515625 40.375 
Q 6.59375 45.0625 6.59375 53.421875 
Q 6.59375 63.09375 13.40625 68.65625 
Q 20.21875 74.21875 32.171875 74.21875 
Q 37.3125 74.21875 42.625 73.28125 
Q 47.953125 72.359375 53.515625 70.515625 
z
" id="DejaVuSans-53"/>
      <path d="M 8.6875 72.90625 
L 18.609375 72.90625 
L 18.609375 28.609375 
Q 18.609375 16.890625 22.84375 11.734375 
Q 27.09375 6.59375 36.625 6.59375 
Q 46.09375 6.59375 50.34375 11.734375 
Q 54.59375 16.890625 54.59375 28.609375 
L 54.59375 72.90625 
L 64.5 72.90625 
L 64.5 27.390625 
Q 64.5 13.140625 57.4375 5.859375 
Q 50.390625 -1.421875 36.625 -1.421875 
Q 22.796875 -1.421875 15.734375 5.859375 
Q 8.6875 13.140625 8.6875 27.390625 
z
" id="DejaVuSans-55"/>
      <path d="M 19.671875 34.8125 
L 19.671875 8.109375 
L 35.5 8.109375 
Q 43.453125 8.109375 47.28125 11.40625 
Q 51.125 14.703125 51.125 21.484375 
Q 51.125 28.328125 47.28125 31.5625 
Q 43.453125 34.8125 35.5 34.8125 
z
M 19.671875 64.796875 
L 19.671875 42.828125 
L 34.28125 42.828125 
Q 41.5 42.828125 45.03125 45.53125 
Q 48.578125 48.25 48.578125 53.8125 
Q 48.578125 59.328125 45.03125 62.0625 
Q 41.5 64.796875 34.28125 64.796875 
z
M 9.8125 72.90625 
L 35.015625 72.90625 
Q 46.296875 72.90625 52.390625 68.21875 
Q 58.5 63.53125 58.5 54.890625 
Q 58.5 48.1875 55.375 44.234375 
Q 52.25 40.28125 46.1875 39.3125 
Q 53.46875 37.75 57.5 32.78125 
Q 61.53125 27.828125 61.53125 20.40625 
Q 61.53125 10.640625 54.890625 5.3125 
Q 48.25 0 35.984375 0 
L 9.8125 0 
z
" id="DejaVuSans-42"/>
      <path d="M 25.390625 72.90625 
L 33.6875 72.90625 
L 8.296875 -9.28125 
L 0 -9.28125 
z
" id="DejaVuSans-2f"/>
      <path d="M 30.609375 48.390625 
Q 23.390625 48.390625 19.1875 42.75 
Q 14.984375 37.109375 14.984375 27.296875 
Q 14.984375 17.484375 19.15625 11.84375 
Q 23.34375 6.203125 30.609375 6.203125 
Q 37.796875 6.203125 41.984375 11.859375 
Q 46.1875 17.53125 46.1875 27.296875 
Q 46.1875 37.015625 41.984375 42.703125 
Q 37.796875 48.390625 30.609375 48.390625 
z
M 30.609375 56 
Q 42.328125 56 49.015625 48.375 
Q 55.71875 40.765625 55.71875 27.296875 
Q 55.71875 13.875 49.015625 6.21875 
Q 42.328125 -1.421875 30.609375 -1.421875 
Q 18.84375 -1.421875 12.171875 6.21875 
Q 5.515625 13.875 5.515625 27.296875 
Q 5.515625 40.765625 12.171875 48.375 
Q 18.84375 56 30.609375 56 
z
" id="DejaVuSans-6f"/>
      <path d="M 34.28125 27.484375 
Q 23.390625 27.484375 19.1875 25 
Q 14.984375 22.515625 14.984375 16.5 
Q 14.984375 11.71875 18.140625 8.90625 
Q 21.296875 6.109375 26.703125 6.109375 
Q 34.1875 6.109375 38.703125 11.40625 
Q 43.21875 16.703125 43.21875 25.484375 
L 43.21875 27.484375 
z
M 52.203125 31.203125 
L 52.203125 0 
L 43.21875 0 
L 43.21875 8.296875 
Q 40.140625 3.328125 35.546875 0.953125 
Q 30.953125 -1.421875 24.3125 -1.421875 
Q 15.921875 -1.421875 10.953125 3.296875 
Q 6 8.015625 6 15.921875 
Q 6 25.140625 12.171875 29.828125 
Q 18.359375 34.515625 30.609375 34.515625 
L 43.21875 34.515625 
L 43.21875 35.40625 
Q 43.21875 41.609375 39.140625 45 
Q 35.0625 48.390625 27.6875 48.390625 
Q 23 48.390625 18.546875 47.265625 
Q 14.109375 46.140625 10.015625 43.890625 
L 10.015625 52.203125 
Q 14.9375 54.109375 19.578125 55.046875 
Q 24.21875 56 28.609375 56 
Q 40.484375 56 46.34375 49.84375 
Q 52.203125 43.703125 52.203125 31.203125 
z
" id="DejaVuSans-61"/>
      <path d="M 9.421875 75.984375 
L 18.40625 75.984375 
L 18.40625 0 
L 9.421875 0 
z
" id="DejaVuSans-6c"/>
     </defs>
     <g transform="translate(21.518438 102.955469)rotate(-90)scale(0.1 -0.1)">
      <use xlink:href="#DejaVuSans-70"/>
      <use x="63.476562" xlink:href="#DejaVuSans-53"/>
      <use x="126.953125" xlink:href="#DejaVuSans-55"/>
      <use x="200.146484" xlink:href="#DejaVuSans-42"/>
      <use x="268.75" xlink:href="#DejaVuSans-2f"/>
      <use x="302.441406" xlink:href="#DejaVuSans-74"/>
      <use x="341.650391" xlink:href="#DejaVuSans-6f"/>
      <use x="402.832031" xlink:href="#DejaVuSans-74"/>
      <use x="442.041016" xlink:href="#DejaVuSans-61"/>
      <use x="503.320312" xlink:href="#DejaVuSans-6c"/>
     </g>
    </g>
   </g>
   <g id="line2d_11">
    <path clip-path="url(#p886b88b159)" d="M 56.86375 121.411288 
L 79.867812 121.308586 
L 84.120146 121.070163 
L 88.288036 120.61298 
L 91.788405 120.020555 
L 95.546756 119.158116 
L 99.482639 118.009546 
L 103.729557 116.518246 
L 108.851785 114.450344 
L 115.961777 111.28666 
L 128.82853 105.522302 
L 134.772897 103.113909 
L 140.318323 101.093443 
L 146.307749 99.182291 
L 151.605466 97.722831 
L 157.528313 96.332894 
L 163.154488 95.228255 
L 169.469367 94.208447 
L 176.737834 93.27801 
L 184.684409 92.504224 
L 193.309092 91.884893 
L 203.904525 91.356587 
L 217.148817 90.940916 
L 234.673663 90.640805 
L 259.53055 90.457203 
L 271.421275 90.417253 
L 271.421275 90.417253 
" style="fill:none;stroke:#1f77b4;stroke-linecap:square;stroke-width:3;"/>
   </g>
   <g id="line2d_12">
    <path clip-path="url(#p886b88b159)" d="M 56.86375 121.275655 
L 79.867812 121.17086 
L 84.120146 120.92713 
L 88.288036 120.459354 
L 91.788405 119.852872 
L 95.546756 118.969646 
L 99.482639 117.793076 
L 103.417802 116.385163 
L 108.021516 114.506081 
L 113.488526 112.055565 
L 130.170589 104.420745 
L 136.478599 101.869211 
L 141.963622 99.894423 
L 147.261338 98.219087 
L 152.898109 96.678114 
L 158.534879 95.370611 
L 164.17165 94.274199 
L 170.846773 93.213662 
L 177.754995 92.347579 
L 185.362517 91.612195 
L 194.771261 90.948729 
L 205.281931 90.441282 
L 217.148817 90.071153 
L 234.504136 89.766352 
L 258.852442 89.579597 
L 271.421275 89.535741 
L 271.421275 89.535741 
" style="fill:none;stroke:#ff7f0e;stroke-linecap:square;stroke-width:3;"/>
   </g>
   <g id="patch_3">
    <path d="M 56.86375 138.04 
L 56.86375 14.76 
" style="fill:none;stroke:#000000;stroke-linecap:square;stroke-linejoin:miter;stroke-width:1.5;"/>
   </g>
   <g id="patch_4">
    <path d="M 26.3 138.04 
L 270.81 138.04 
" style="fill:none;stroke:#000000;stroke-linecap:square;stroke-linejoin:miter;stroke-width:1.5;"/>
   </g>
  </g>
 </g>
 <defs>
  <clipPath id="p886b88b159">
   <rect height="123.28" width="244.51" x="26.3" y="14.76"/>
  </clipPath>
 </defs>
</svg>
