<?xml version="1.0" encoding="utf-8" standalone="no"?>
<!DOCTYPE svg PUBLIC "-//W3C//DTD SVG 1.1//EN"
  "http://www.w3.org/Graphics/SVG/1.1/DTD/svg11.dtd">
<!-- Created with matplotlib (http://matplotlib.org/) -->
<svg height="180pt" version="1.1" viewBox="0 0 288 180" width="288pt" xmlns="http://www.w3.org/2000/svg" xmlns:xlink="http://www.w3.org/1999/xlink">
 <defs>
  <style type="text/css">
*{stroke-linecap:butt;stroke-linejoin:round;}
  </style>
 </defs>
 <g id="figure_1">
  <g id="patch_1">
   <path d="M 0 180 
L 288 180 
L 288 0 
L 0 0 
z
" style="fill:#ffffff;"/>
  </g>
  <g id="axes_1">
   <g id="patch_2">
    <path d="M 26.3 138.04 
L 270.81 138.04 
L 270.81 14.76 
L 26.3 14.76 
z
" style="fill:#ffffff;"/>
   </g>
   <g id="PolyCollection_1">
    <path clip-path="url(#p8d6d8f7fee)" d="M 56.86375 122.50529 
L 56.86375 126.683643 
L 59.512608 126.683643 
L 62.161467 126.683643 
L 64.810325 126.683643 
L 67.459183 126.683643 
L 70.108042 126.683641 
L 72.7569 126.683611 
L 75.405758 126.68348 
L 78.054617 126.683153 
L 80.703475 126.682543 
L 83.352333 126.68158 
L 86.001192 126.680213 
L 88.65005 126.67841 
L 91.298908 126.676158 
L 93.947767 126.673456 
L 96.596625 126.670318 
L 99.245483 126.666764 
L 101.894342 126.662819 
L 104.5432 126.658515 
L 107.192058 126.653883 
L 109.840917 126.648959 
L 112.489775 126.643775 
L 115.138633 126.638365 
L 117.787492 126.632763 
L 120.43635 126.626998 
L 123.085208 126.621101 
L 125.734067 126.615099 
L 128.382925 126.609018 
L 131.031783 126.60288 
L 133.680642 126.596709 
L 136.3295 126.590523 
L 138.978358 126.584339 
L 141.627217 126.578173 
L 144.276075 126.572039 
L 146.924933 126.56595 
L 149.573792 126.559916 
L 152.22265 126.553946 
L 154.871508 126.548049 
L 157.520367 126.542231 
L 160.169225 126.536499 
L 162.818083 126.530858 
L 165.466942 126.52531 
L 168.1158 126.519861 
L 170.764658 126.514511 
L 173.413517 126.509263 
L 176.062375 126.504119 
L 178.711233 126.499078 
L 181.360092 126.494142 
L 184.00895 126.489311 
L 186.657808 126.484584 
L 189.306667 126.47996 
L 191.955525 126.47544 
L 194.604383 126.471021 
L 197.253242 126.466703 
L 199.9021 126.462485 
L 202.550958 126.458365 
L 205.199817 126.454341 
L 207.848675 126.450411 
L 210.497533 126.446575 
L 213.146392 126.442831 
L 215.79525 126.439176 
L 218.444108 126.435608 
L 221.092967 126.432127 
L 223.741825 126.42873 
L 226.390683 126.425415 
L 229.039542 126.422181 
L 231.6884 126.419025 
L 234.337258 126.415946 
L 236.986117 126.412942 
L 239.634975 126.410012 
L 242.283833 126.407153 
L 244.932692 126.404364 
L 247.58155 126.401644 
L 250.230408 126.398989 
L 252.879267 126.3964 
L 255.528125 126.393874 
L 258.176983 126.39141 
L 260.825842 126.389005 
L 263.4747 126.38666 
L 266.123558 126.384372 
L 268.772417 126.382139 
L 271.421275 126.379961 
L 274.070133 126.377836 
L 276.718992 126.375762 
L 279.36785 126.373739 
L 282.016708 126.371765 
L 284.665567 126.369839 
L 287.314425 126.367959 
L 289.963283 126.366125 
L 292.612142 126.364335 
L 295.261 126.362588 
L 297.909858 126.360884 
L 300.558717 126.35922 
L 303.207575 126.357596 
L 305.856433 126.356011 
L 308.505292 126.354464 
L 311.15415 126.352954 
L 313.803008 126.35148 
L 316.451867 126.350041 
L 319.100725 126.348636 
L 321.749583 126.347264 
L 321.749583 109.521202 
L 321.749583 109.521202 
L 319.100725 109.558368 
L 316.451867 109.596425 
L 313.803008 109.635398 
L 311.15415 109.675311 
L 308.505292 109.716189 
L 305.856433 109.758061 
L 303.207575 109.800949 
L 300.558717 109.844881 
L 297.909858 109.889894 
L 295.261 109.936008 
L 292.612142 109.983254 
L 289.963283 110.031673 
L 287.314425 110.081288 
L 284.665567 110.132132 
L 282.016708 110.184253 
L 279.36785 110.237677 
L 276.718992 110.292439 
L 274.070133 110.348595 
L 271.421275 110.406177 
L 268.772417 110.465221 
L 266.123558 110.525783 
L 263.4747 110.587914 
L 260.825842 110.651661 
L 258.176983 110.717082 
L 255.528125 110.784237 
L 252.879267 110.853173 
L 250.230408 110.923954 
L 247.58155 110.996646 
L 244.932692 111.071314 
L 242.283833 111.148038 
L 239.634975 111.226889 
L 236.986117 111.307956 
L 234.337258 111.391325 
L 231.6884 111.477089 
L 229.039542 111.565344 
L 226.390683 111.656197 
L 223.741825 111.749757 
L 221.092967 111.846145 
L 218.444108 111.945488 
L 215.79525 112.04792 
L 213.146392 112.153586 
L 210.497533 112.262639 
L 207.848675 112.375245 
L 205.199817 112.491576 
L 202.550958 112.611818 
L 199.9021 112.736168 
L 197.253242 112.864833 
L 194.604383 112.998036 
L 191.955525 113.136008 
L 189.306667 113.278996 
L 186.657808 113.427256 
L 184.00895 113.581056 
L 181.360092 113.740676 
L 178.711233 113.9064 
L 176.062375 114.078524 
L 173.413517 114.25735 
L 170.764658 114.44318 
L 168.1158 114.636317 
L 165.466942 114.837056 
L 162.818083 115.04568 
L 160.169225 115.262449 
L 157.520367 115.487595 
L 154.871508 115.72131 
L 152.22265 115.963733 
L 149.573792 116.214945 
L 146.924933 116.474946 
L 144.276075 116.743645 
L 141.627217 117.020831 
L 138.978358 117.306153 
L 136.3295 117.599101 
L 133.680642 117.898979 
L 131.031783 118.204855 
L 128.382925 118.515602 
L 125.734067 118.829845 
L 123.085208 119.145894 
L 120.43635 119.461862 
L 117.787492 119.77556 
L 115.138633 120.084559 
L 112.489775 120.386069 
L 109.840917 120.677214 
L 107.192058 120.954911 
L 104.5432 121.216 
L 101.894342 121.457405 
L 99.245483 121.676271 
L 96.596625 121.870143 
L 93.947767 122.037159 
L 91.298908 122.176252 
L 88.65005 122.287332 
L 86.001192 122.371469 
L 83.352333 122.430956 
L 80.703475 122.469319 
L 78.054617 122.491055 
L 75.405758 122.501195 
L 72.7569 122.504636 
L 70.108042 122.505265 
L 67.459183 122.50529 
L 64.810325 122.50529 
L 62.161467 122.50529 
L 59.512608 122.50529 
L 56.86375 122.50529 
z
" style="fill:#1f77b4;fill-opacity:0.2;"/>
   </g>
   <g id="PolyCollection_2">
    <path clip-path="url(#p8d6d8f7fee)" d="M 56.86375 79.748765 
L 56.86375 95.935821 
L 59.512608 95.935821 
L 62.161467 95.935821 
L 64.810325 95.935821 
L 67.459183 95.935821 
L 70.108042 95.935772 
L 72.7569 95.934559 
L 75.405758 95.927919 
L 78.054617 95.908059 
L 80.703475 95.864754 
L 83.352333 95.786657 
L 86.001192 95.662582 
L 88.65005 95.482494 
L 91.298908 95.238019 
L 93.947767 94.922711 
L 96.596625 94.532441 
L 99.245483 94.06523 
L 101.894342 93.521091 
L 104.5432 92.901757 
L 107.192058 92.210428 
L 109.840917 91.451442 
L 112.489775 90.629954 
L 115.138633 89.751768 
L 117.787492 88.823081 
L 120.43635 87.850307 
L 123.085208 86.84084 
L 125.734067 85.809799 
L 128.382925 84.754816 
L 131.031783 83.681564 
L 133.680642 82.595332 
L 136.3295 81.517846 
L 138.978358 80.487591 
L 141.627217 79.451024 
L 144.276075 78.416735 
L 146.924933 77.401606 
L 149.573792 76.388304 
L 152.22265 75.379165 
L 154.871508 74.376762 
L 157.520367 73.383096 
L 160.169225 72.399979 
L 162.818083 71.428925 
L 165.466942 70.471293 
L 168.1158 69.5281 
L 170.764658 68.600165 
L 173.413517 67.688199 
L 176.062375 66.7928 
L 178.711233 65.914347 
L 181.360092 65.053372 
L 184.00895 64.210233 
L 186.657808 63.385123 
L 189.306667 62.578177 
L 191.955525 61.789523 
L 194.604383 61.018957 
L 197.253242 60.266327 
L 199.9021 59.531474 
L 202.550958 58.86214 
L 205.199817 58.225731 
L 207.848675 57.60536 
L 210.497533 57.000665 
L 213.146392 56.411277 
L 215.79525 55.83683 
L 218.444108 55.276959 
L 221.092967 54.731301 
L 223.741825 54.199495 
L 226.390683 53.681187 
L 229.039542 53.176025 
L 231.6884 52.683667 
L 234.337258 52.203776 
L 236.986117 51.736022 
L 239.634975 51.280083 
L 242.283833 50.835643 
L 244.932692 50.402396 
L 247.58155 49.980042 
L 250.230408 49.568294 
L 252.879267 49.16686 
L 255.528125 48.77547 
L 258.176983 48.393843 
L 260.825842 48.021725 
L 263.4747 47.658854 
L 266.123558 47.304984 
L 268.772417 46.959873 
L 271.421275 46.623284 
L 274.070133 46.295009 
L 276.718992 45.974823 
L 279.36785 45.6625 
L 282.016708 45.357829 
L 284.665567 45.060626 
L 287.314425 44.770661 
L 289.963283 44.487722 
L 292.612142 44.211674 
L 295.261 43.94233 
L 297.909858 43.679477 
L 300.558717 43.422929 
L 303.207575 43.172609 
L 305.856433 42.928293 
L 308.505292 42.689806 
L 311.15415 42.457023 
L 313.803008 42.229824 
L 316.451867 42.008024 
L 319.100725 41.791467 
L 321.749583 41.580057 
L 321.749583 21.258154 
L 321.749583 21.258154 
L 319.100725 21.471641 
L 316.451867 21.690609 
L 313.803008 21.915217 
L 311.15415 22.14563 
L 308.505292 22.38202 
L 305.856433 22.62458 
L 303.207575 22.873455 
L 300.558717 23.128838 
L 297.909858 23.390969 
L 295.261 23.659994 
L 292.612142 23.936115 
L 289.963283 24.219594 
L 287.314425 24.510599 
L 284.665567 24.809347 
L 282.016708 25.11612 
L 279.36785 25.431119 
L 276.718992 25.75457 
L 274.070133 26.086786 
L 271.421275 26.427996 
L 268.772417 26.778437 
L 266.123558 27.138427 
L 263.4747 27.508259 
L 260.825842 27.88822 
L 258.176983 28.27863 
L 255.528125 28.679815 
L 252.879267 29.092069 
L 250.230408 29.51573 
L 247.58155 29.951144 
L 244.932692 30.398659 
L 242.283833 30.858652 
L 239.634975 31.331487 
L 236.986117 31.817559 
L 234.337258 32.317262 
L 231.6884 32.831004 
L 229.039542 33.359198 
L 226.390683 33.90227 
L 223.741825 34.460657 
L 221.092967 35.034804 
L 218.444108 35.625166 
L 215.79525 36.232207 
L 213.146392 36.856394 
L 210.497533 37.498205 
L 207.848675 38.158117 
L 205.199817 38.836612 
L 202.550958 39.534165 
L 199.9021 40.251256 
L 197.253242 40.988352 
L 194.604383 41.745917 
L 191.955525 42.524396 
L 189.306667 43.324213 
L 186.657808 44.145769 
L 184.00895 44.989425 
L 181.360092 45.855505 
L 178.711233 46.744272 
L 176.062375 47.655935 
L 173.413517 48.590621 
L 170.764658 49.548368 
L 168.1158 50.529107 
L 165.466942 51.532635 
L 162.818083 52.558607 
L 160.169225 53.606492 
L 157.520367 54.675561 
L 154.871508 55.744856 
L 152.22265 56.807284 
L 149.573792 57.888489 
L 146.924933 58.986998 
L 144.276075 60.101005 
L 141.627217 61.228255 
L 138.978358 62.366172 
L 136.3295 63.511678 
L 133.680642 64.661282 
L 131.031783 65.810745 
L 128.382925 66.95549 
L 125.734067 68.090313 
L 123.085208 69.209352 
L 120.43635 70.306156 
L 117.787492 71.373787 
L 115.138633 72.404882 
L 112.489775 73.391757 
L 109.840917 74.326573 
L 107.192058 75.201535 
L 104.5432 76.009164 
L 101.894342 76.742635 
L 99.245483 77.396158 
L 96.596625 77.965403 
L 93.947767 78.447929 
L 91.298908 78.843572 
L 88.65005 79.154911 
L 86.001192 79.387425 
L 83.352333 79.549726 
L 80.703475 79.653167 
L 78.054617 79.711166 
L 75.405758 79.738001 
L 72.7569 79.747033 
L 70.108042 79.748686 
L 67.459183 79.748755 
L 64.810325 79.748757 
L 62.161467 79.74876 
L 59.512608 79.748763 
L 56.86375 79.748765 
z
" style="fill:#ff7f0e;fill-opacity:0.2;"/>
   </g>
   <g id="matplotlib.axis_1">
    <g id="xtick_1">
     <g id="line2d_1">
      <defs>
       <path d="M 0 0 
L 0 3.5 
" id="m4652849a79" style="stroke:#000000;stroke-width:0.8;"/>
      </defs>
      <g>
       <use style="stroke:#000000;stroke-width:0.8;" x="67.051667" xlink:href="#m4652849a79" y="138.04"/>
      </g>
     </g>
     <g id="text_1">
      <!-- 0 -->
      <defs>
       <path d="M 31.78125 66.40625 
Q 24.171875 66.40625 20.328125 58.90625 
Q 16.5 51.421875 16.5 36.375 
Q 16.5 21.390625 20.328125 13.890625 
Q 24.171875 6.390625 31.78125 6.390625 
Q 39.453125 6.390625 43.28125 13.890625 
Q 47.125 21.390625 47.125 36.375 
Q 47.125 51.421875 43.28125 58.90625 
Q 39.453125 66.40625 31.78125 66.40625 
z
M 31.78125 74.21875 
Q 44.046875 74.21875 50.515625 64.515625 
Q 56.984375 54.828125 56.984375 36.375 
Q 56.984375 17.96875 50.515625 8.265625 
Q 44.046875 -1.421875 31.78125 -1.421875 
Q 19.53125 -1.421875 13.0625 8.265625 
Q 6.59375 17.96875 6.59375 36.375 
Q 6.59375 54.828125 13.0625 64.515625 
Q 19.53125 74.21875 31.78125 74.21875 
z
" id="DejaVuSans-30"/>
      </defs>
      <g transform="translate(63.870417 152.638438)scale(0.1 -0.1)">
       <use xlink:href="#DejaVuSans-30"/>
      </g>
     </g>
    </g>
    <g id="xtick_2">
     <g id="line2d_2">
      <g>
       <use style="stroke:#000000;stroke-width:0.8;" x="117.99125" xlink:href="#m4652849a79" y="138.04"/>
      </g>
     </g>
     <g id="text_2">
      <!-- 5 -->
      <defs>
       <path d="M 10.796875 72.90625 
L 49.515625 72.90625 
L 49.515625 64.59375 
L 19.828125 64.59375 
L 19.828125 46.734375 
Q 21.96875 47.46875 24.109375 47.828125 
Q 26.265625 48.1875 28.421875 48.1875 
Q 40.625 48.1875 47.75 41.5 
Q 54.890625 34.8125 54.890625 23.390625 
Q 54.890625 11.625 47.5625 5.09375 
Q 40.234375 -1.421875 26.90625 -1.421875 
Q 22.3125 -1.421875 17.546875 -0.640625 
Q 12.796875 0.140625 7.71875 1.703125 
L 7.71875 11.625 
Q 12.109375 9.234375 16.796875 8.0625 
Q 21.484375 6.890625 26.703125 6.890625 
Q 35.15625 6.890625 40.078125 11.328125 
Q 45.015625 15.765625 45.015625 23.390625 
Q 45.015625 31 40.078125 35.4375 
Q 35.15625 39.890625 26.703125 39.890625 
Q 22.75 39.890625 18.8125 39.015625 
Q 14.890625 38.140625 10.796875 36.28125 
z
" id="DejaVuSans-35"/>
      </defs>
      <g transform="translate(114.81 152.638438)scale(0.1 -0.1)">
       <use xlink:href="#DejaVuSans-35"/>
      </g>
     </g>
    </g>
    <g id="xtick_3">
     <g id="line2d_3">
      <g>
       <use style="stroke:#000000;stroke-width:0.8;" x="168.930833" xlink:href="#m4652849a79" y="138.04"/>
      </g>
     </g>
     <g id="text_3">
      <!-- 10 -->
      <defs>
       <path d="M 12.40625 8.296875 
L 28.515625 8.296875 
L 28.515625 63.921875 
L 10.984375 60.40625 
L 10.984375 69.390625 
L 28.421875 72.90625 
L 38.28125 72.90625 
L 38.28125 8.296875 
L 54.390625 8.296875 
L 54.390625 0 
L 12.40625 0 
z
" id="DejaVuSans-31"/>
      </defs>
      <g transform="translate(162.568333 152.638438)scale(0.1 -0.1)">
       <use xlink:href="#DejaVuSans-31"/>
       <use x="63.623047" xlink:href="#DejaVuSans-30"/>
      </g>
     </g>
    </g>
    <g id="xtick_4">
     <g id="line2d_4">
      <g>
       <use style="stroke:#000000;stroke-width:0.8;" x="219.870417" xlink:href="#m4652849a79" y="138.04"/>
      </g>
     </g>
     <g id="text_4">
      <!-- 15 -->
      <g transform="translate(213.507917 152.638438)scale(0.1 -0.1)">
       <use xlink:href="#DejaVuSans-31"/>
       <use x="63.623047" xlink:href="#DejaVuSans-35"/>
      </g>
     </g>
    </g>
    <g id="xtick_5">
     <g id="line2d_5">
      <g>
       <use style="stroke:#000000;stroke-width:0.8;" x="270.81" xlink:href="#m4652849a79" y="138.04"/>
      </g>
     </g>
     <g id="text_5">
      <!-- 20 -->
      <defs>
       <path d="M 19.1875 8.296875 
L 53.609375 8.296875 
L 53.609375 0 
L 7.328125 0 
L 7.328125 8.296875 
Q 12.9375 14.109375 22.625 23.890625 
Q 32.328125 33.6875 34.8125 36.53125 
Q 39.546875 41.84375 41.421875 45.53125 
Q 43.3125 49.21875 43.3125 52.78125 
Q 43.3125 58.59375 39.234375 62.25 
Q 35.15625 65.921875 28.609375 65.921875 
Q 23.96875 65.921875 18.8125 64.3125 
Q 13.671875 62.703125 7.8125 59.421875 
L 7.8125 69.390625 
Q 13.765625 71.78125 18.9375 73 
Q 24.125 74.21875 28.421875 74.21875 
Q 39.75 74.21875 46.484375 68.546875 
Q 53.21875 62.890625 53.21875 53.421875 
Q 53.21875 48.921875 51.53125 44.890625 
Q 49.859375 40.875 45.40625 35.40625 
Q 44.1875 33.984375 37.640625 27.21875 
Q 31.109375 20.453125 19.1875 8.296875 
z
" id="DejaVuSans-32"/>
      </defs>
      <g transform="translate(264.4475 152.638438)scale(0.1 -0.1)">
       <use xlink:href="#DejaVuSans-32"/>
       <use x="63.623047" xlink:href="#DejaVuSans-30"/>
      </g>
     </g>
    </g>
    <g id="text_6">
     <!-- time (minutes) -->
     <defs>
      <path d="M 18.3125 70.21875 
L 18.3125 54.6875 
L 36.8125 54.6875 
L 36.8125 47.703125 
L 18.3125 47.703125 
L 18.3125 18.015625 
Q 18.3125 11.328125 20.140625 9.421875 
Q 21.96875 7.515625 27.59375 7.515625 
L 36.8125 7.515625 
L 36.8125 0 
L 27.59375 0 
Q 17.1875 0 13.234375 3.875 
Q 9.28125 7.765625 9.28125 18.015625 
L 9.28125 47.703125 
L 2.6875 47.703125 
L 2.6875 54.6875 
L 9.28125 54.6875 
L 9.28125 70.21875 
z
" id="DejaVuSans-74"/>
      <path d="M 9.421875 54.6875 
L 18.40625 54.6875 
L 18.40625 0 
L 9.421875 0 
z
M 9.421875 75.984375 
L 18.40625 75.984375 
L 18.40625 64.59375 
L 9.421875 64.59375 
z
" id="DejaVuSans-69"/>
      <path d="M 52 44.1875 
Q 55.375 50.25 60.0625 53.125 
Q 64.75 56 71.09375 56 
Q 79.640625 56 84.28125 50.015625 
Q 88.921875 44.046875 88.921875 33.015625 
L 88.921875 0 
L 79.890625 0 
L 79.890625 32.71875 
Q 79.890625 40.578125 77.09375 44.375 
Q 74.3125 48.1875 68.609375 48.1875 
Q 61.625 48.1875 57.5625 43.546875 
Q 53.515625 38.921875 53.515625 30.90625 
L 53.515625 0 
L 44.484375 0 
L 44.484375 32.71875 
Q 44.484375 40.625 41.703125 44.40625 
Q 38.921875 48.1875 33.109375 48.1875 
Q 26.21875 48.1875 22.15625 43.53125 
Q 18.109375 38.875 18.109375 30.90625 
L 18.109375 0 
L 9.078125 0 
L 9.078125 54.6875 
L 18.109375 54.6875 
L 18.109375 46.1875 
Q 21.1875 51.21875 25.484375 53.609375 
Q 29.78125 56 35.6875 56 
Q 41.65625 56 45.828125 52.96875 
Q 50 49.953125 52 44.1875 
z
" id="DejaVuSans-6d"/>
      <path d="M 56.203125 29.59375 
L 56.203125 25.203125 
L 14.890625 25.203125 
Q 15.484375 15.921875 20.484375 11.0625 
Q 25.484375 6.203125 34.421875 6.203125 
Q 39.59375 6.203125 44.453125 7.46875 
Q 49.3125 8.734375 54.109375 11.28125 
L 54.109375 2.78125 
Q 49.265625 0.734375 44.1875 -0.34375 
Q 39.109375 -1.421875 33.890625 -1.421875 
Q 20.796875 -1.421875 13.15625 6.1875 
Q 5.515625 13.8125 5.515625 26.8125 
Q 5.515625 40.234375 12.765625 48.109375 
Q 20.015625 56 32.328125 56 
Q 43.359375 56 49.78125 48.890625 
Q 56.203125 41.796875 56.203125 29.59375 
z
M 47.21875 32.234375 
Q 47.125 39.59375 43.09375 43.984375 
Q 39.0625 48.390625 32.421875 48.390625 
Q 24.90625 48.390625 20.390625 44.140625 
Q 15.875 39.890625 15.1875 32.171875 
z
" id="DejaVuSans-65"/>
      <path id="DejaVuSans-20"/>
      <path d="M 31 75.875 
Q 24.46875 64.65625 21.28125 53.65625 
Q 18.109375 42.671875 18.109375 31.390625 
Q 18.109375 20.125 21.3125 9.0625 
Q 24.515625 -2 31 -13.1875 
L 23.1875 -13.1875 
Q 15.875 -1.703125 12.234375 9.375 
Q 8.59375 20.453125 8.59375 31.390625 
Q 8.59375 42.28125 12.203125 53.3125 
Q 15.828125 64.359375 23.1875 75.875 
z
" id="DejaVuSans-28"/>
      <path d="M 54.890625 33.015625 
L 54.890625 0 
L 45.90625 0 
L 45.90625 32.71875 
Q 45.90625 40.484375 42.875 44.328125 
Q 39.84375 48.1875 33.796875 48.1875 
Q 26.515625 48.1875 22.3125 43.546875 
Q 18.109375 38.921875 18.109375 30.90625 
L 18.109375 0 
L 9.078125 0 
L 9.078125 54.6875 
L 18.109375 54.6875 
L 18.109375 46.1875 
Q 21.34375 51.125 25.703125 53.5625 
Q 30.078125 56 35.796875 56 
Q 45.21875 56 50.046875 50.171875 
Q 54.890625 44.34375 54.890625 33.015625 
z
" id="DejaVuSans-6e"/>
      <path d="M 8.5 21.578125 
L 8.5 54.6875 
L 17.484375 54.6875 
L 17.484375 21.921875 
Q 17.484375 14.15625 20.5 10.265625 
Q 23.53125 6.390625 29.59375 6.390625 
Q 36.859375 6.390625 41.078125 11.03125 
Q 45.3125 15.671875 45.3125 23.6875 
L 45.3125 54.6875 
L 54.296875 54.6875 
L 54.296875 0 
L 45.3125 0 
L 45.3125 8.40625 
Q 42.046875 3.421875 37.71875 1 
Q 33.40625 -1.421875 27.6875 -1.421875 
Q 18.265625 -1.421875 13.375 4.4375 
Q 8.5 10.296875 8.5 21.578125 
z
M 31.109375 56 
z
" id="DejaVuSans-75"/>
      <path d="M 44.28125 53.078125 
L 44.28125 44.578125 
Q 40.484375 46.53125 36.375 47.5 
Q 32.28125 48.484375 27.875 48.484375 
Q 21.1875 48.484375 17.84375 46.4375 
Q 14.5 44.390625 14.5 40.28125 
Q 14.5 37.15625 16.890625 35.375 
Q 19.28125 33.59375 26.515625 31.984375 
L 29.59375 31.296875 
Q 39.15625 29.25 43.1875 25.515625 
Q 47.21875 21.78125 47.21875 15.09375 
Q 47.21875 7.46875 41.1875 3.015625 
Q 35.15625 -1.421875 24.609375 -1.421875 
Q 20.21875 -1.421875 15.453125 -0.5625 
Q 10.6875 0.296875 5.421875 2 
L 5.421875 11.28125 
Q 10.40625 8.6875 15.234375 7.390625 
Q 20.0625 6.109375 24.8125 6.109375 
Q 31.15625 6.109375 34.5625 8.28125 
Q 37.984375 10.453125 37.984375 14.40625 
Q 37.984375 18.0625 35.515625 20.015625 
Q 33.0625 21.96875 24.703125 23.78125 
L 21.578125 24.515625 
Q 13.234375 26.265625 9.515625 29.90625 
Q 5.8125 33.546875 5.8125 39.890625 
Q 5.8125 47.609375 11.28125 51.796875 
Q 16.75 56 26.8125 56 
Q 31.78125 56 36.171875 55.265625 
Q 40.578125 54.546875 44.28125 53.078125 
z
" id="DejaVuSans-73"/>
      <path d="M 8.015625 75.875 
L 15.828125 75.875 
Q 23.140625 64.359375 26.78125 53.3125 
Q 30.421875 42.28125 30.421875 31.390625 
Q 30.421875 20.453125 26.78125 9.375 
Q 23.140625 -1.703125 15.828125 -13.1875 
L 8.015625 -13.1875 
Q 14.5 -2 17.703125 9.0625 
Q 20.90625 20.125 20.90625 31.390625 
Q 20.90625 42.671875 17.703125 53.65625 
Q 14.5 64.65625 8.015625 75.875 
z
" id="DejaVuSans-29"/>
     </defs>
     <g transform="translate(111.53 166.316563)scale(0.1 -0.1)">
      <use xlink:href="#DejaVuSans-74"/>
      <use x="39.208984" xlink:href="#DejaVuSans-69"/>
      <use x="66.992188" xlink:href="#DejaVuSans-6d"/>
      <use x="164.404297" xlink:href="#DejaVuSans-65"/>
      <use x="225.927734" xlink:href="#DejaVuSans-20"/>
      <use x="257.714844" xlink:href="#DejaVuSans-28"/>
      <use x="296.728516" xlink:href="#DejaVuSans-6d"/>
      <use x="394.140625" xlink:href="#DejaVuSans-69"/>
      <use x="421.923828" xlink:href="#DejaVuSans-6e"/>
      <use x="485.302734" xlink:href="#DejaVuSans-75"/>
      <use x="548.681641" xlink:href="#DejaVuSans-74"/>
      <use x="587.890625" xlink:href="#DejaVuSans-65"/>
      <use x="649.414062" xlink:href="#DejaVuSans-73"/>
      <use x="701.513672" xlink:href="#DejaVuSans-29"/>
     </g>
    </g>
   </g>
   <g id="matplotlib.axis_2">
    <g id="ytick_1">
     <g id="line2d_6">
      <defs>
       <path d="M 0 0 
L -3.5 0 
" id="md9c30db196" style="stroke:#000000;stroke-width:0.8;"/>
      </defs>
      <g>
       <use style="stroke:#000000;stroke-width:0.8;" x="56.86375" xlink:href="#md9c30db196" y="126.832727"/>
      </g>
     </g>
     <g id="text_7">
      <!-- 0.00 -->
      <defs>
       <path d="M 10.6875 12.40625 
L 21 12.40625 
L 21 0 
L 10.6875 0 
z
" id="DejaVuSans-2e"/>
      </defs>
      <g transform="translate(27.598125 130.631946)scale(0.1 -0.1)">
       <use xlink:href="#DejaVuSans-30"/>
       <use x="63.623047" xlink:href="#DejaVuSans-2e"/>
       <use x="95.410156" xlink:href="#DejaVuSans-30"/>
       <use x="159.033203" xlink:href="#DejaVuSans-30"/>
      </g>
     </g>
    </g>
    <g id="ytick_2">
     <g id="line2d_7">
      <g>
       <use style="stroke:#000000;stroke-width:0.8;" x="56.86375" xlink:href="#md9c30db196" y="98.814545"/>
      </g>
     </g>
     <g id="text_8">
      <!-- 0.05 -->
      <g transform="translate(27.598125 102.613764)scale(0.1 -0.1)">
       <use xlink:href="#DejaVuSans-30"/>
       <use x="63.623047" xlink:href="#DejaVuSans-2e"/>
       <use x="95.410156" xlink:href="#DejaVuSans-30"/>
       <use x="159.033203" xlink:href="#DejaVuSans-35"/>
      </g>
     </g>
    </g>
    <g id="ytick_3">
     <g id="line2d_8">
      <g>
       <use style="stroke:#000000;stroke-width:0.8;" x="56.86375" xlink:href="#md9c30db196" y="70.796364"/>
      </g>
     </g>
     <g id="text_9">
      <!-- 0.10 -->
      <g transform="translate(27.598125 74.595582)scale(0.1 -0.1)">
       <use xlink:href="#DejaVuSans-30"/>
       <use x="63.623047" xlink:href="#DejaVuSans-2e"/>
       <use x="95.410156" xlink:href="#DejaVuSans-31"/>
       <use x="159.033203" xlink:href="#DejaVuSans-30"/>
      </g>
     </g>
    </g>
    <g id="ytick_4">
     <g id="line2d_9">
      <g>
       <use style="stroke:#000000;stroke-width:0.8;" x="56.86375" xlink:href="#md9c30db196" y="42.778182"/>
      </g>
     </g>
     <g id="text_10">
      <!-- 0.15 -->
      <g transform="translate(27.598125 46.577401)scale(0.1 -0.1)">
       <use xlink:href="#DejaVuSans-30"/>
       <use x="63.623047" xlink:href="#DejaVuSans-2e"/>
       <use x="95.410156" xlink:href="#DejaVuSans-31"/>
       <use x="159.033203" xlink:href="#DejaVuSans-35"/>
      </g>
     </g>
    </g>
    <g id="ytick_5">
     <g id="line2d_10">
      <g>
       <use style="stroke:#000000;stroke-width:0.8;" x="56.86375" xlink:href="#md9c30db196" y="14.76"/>
      </g>
     </g>
     <g id="text_11">
      <!-- 0.20 -->
      <g transform="translate(27.598125 18.559219)scale(0.1 -0.1)">
       <use xlink:href="#DejaVuSans-30"/>
       <use x="63.623047" xlink:href="#DejaVuSans-2e"/>
       <use x="95.410156" xlink:href="#DejaVuSans-32"/>
       <use x="159.033203" xlink:href="#DejaVuSans-30"/>
      </g>
     </g>
    </g>
    <g id="text_12">
     <!-- pSUB/total -->
     <defs>
      <path d="M 18.109375 8.203125 
L 18.109375 -20.796875 
L 9.078125 -20.796875 
L 9.078125 54.6875 
L 18.109375 54.6875 
L 18.109375 46.390625 
Q 20.953125 51.265625 25.265625 53.625 
Q 29.59375 56 35.59375 56 
Q 45.5625 56 51.78125 48.09375 
Q 58.015625 40.1875 58.015625 27.296875 
Q 58.015625 14.40625 51.78125 6.484375 
Q 45.5625 -1.421875 35.59375 -1.421875 
Q 29.59375 -1.421875 25.265625 0.953125 
Q 20.953125 3.328125 18.109375 8.203125 
z
M 48.6875 27.296875 
Q 48.6875 37.203125 44.609375 42.84375 
Q 40.53125 48.484375 33.40625 48.484375 
Q 26.265625 48.484375 22.1875 42.84375 
Q 18.109375 37.203125 18.109375 27.296875 
Q 18.109375 17.390625 22.1875 11.75 
Q 26.265625 6.109375 33.40625 6.109375 
Q 40.53125 6.109375 44.609375 11.75 
Q 48.6875 17.390625 48.6875 27.296875 
z
" id="DejaVuSans-70"/>
      <path d="M 53.515625 70.515625 
L 53.515625 60.890625 
Q 47.90625 63.578125 42.921875 64.890625 
Q 37.9375 66.21875 33.296875 66.21875 
Q 25.25 66.21875 20.875 63.09375 
Q 16.5 59.96875 16.5 54.203125 
Q 16.5 49.359375 19.40625 46.890625 
Q 22.3125 44.4375 30.421875 42.921875 
L 36.375 41.703125 
Q 47.40625 39.59375 52.65625 34.296875 
Q 57.90625 29 57.90625 20.125 
Q 57.90625 9.515625 50.796875 4.046875 
Q 43.703125 -1.421875 29.984375 -1.421875 
Q 24.8125 -1.421875 18.96875 -0.25 
Q 13.140625 0.921875 6.890625 3.21875 
L 6.890625 13.375 
Q 12.890625 10.015625 18.65625 8.296875 
Q 24.421875 6.59375 29.984375 6.59375 
Q 38.421875 6.59375 43.015625 9.90625 
Q 47.609375 13.234375 47.609375 19.390625 
Q 47.609375 24.75 44.3125 27.78125 
Q 41.015625 30.8125 33.5 32.328125 
L 27.484375 33.5 
Q 16.453125 35.6875 11.515625 40.375 
Q 6.59375 45.0625 6.59375 53.421875 
Q 6.59375 63.09375 13.40625 68.65625 
Q 20.21875 74.21875 32.171875 74.21875 
Q 37.3125 74.21875 42.625 73.28125 
Q 47.953125 72.359375 53.515625 70.515625 
z
" id="DejaVuSans-53"/>
      <path d="M 8.6875 72.90625 
L 18.609375 72.90625 
L 18.609375 28.609375 
Q 18.609375 16.890625 22.84375 11.734375 
Q 27.09375 6.59375 36.625 6.59375 
Q 46.09375 6.59375 50.34375 11.734375 
Q 54.59375 16.890625 54.59375 28.609375 
L 54.59375 72.90625 
L 64.5 72.90625 
L 64.5 27.390625 
Q 64.5 13.140625 57.4375 5.859375 
Q 50.390625 -1.421875 36.625 -1.421875 
Q 22.796875 -1.421875 15.734375 5.859375 
Q 8.6875 13.140625 8.6875 27.390625 
z
" id="DejaVuSans-55"/>
      <path d="M 19.671875 34.8125 
L 19.671875 8.109375 
L 35.5 8.109375 
Q 43.453125 8.109375 47.28125 11.40625 
Q 51.125 14.703125 51.125 21.484375 
Q 51.125 28.328125 47.28125 31.5625 
Q 43.453125 34.8125 35.5 34.8125 
z
M 19.671875 64.796875 
L 19.671875 42.828125 
L 34.28125 42.828125 
Q 41.5 42.828125 45.03125 45.53125 
Q 48.578125 48.25 48.578125 53.8125 
Q 48.578125 59.328125 45.03125 62.0625 
Q 41.5 64.796875 34.28125 64.796875 
z
M 9.8125 72.90625 
L 35.015625 72.90625 
Q 46.296875 72.90625 52.390625 68.21875 
Q 58.5 63.53125 58.5 54.890625 
Q 58.5 48.1875 55.375 44.234375 
Q 52.25 40.28125 46.1875 39.3125 
Q 53.46875 37.75 57.5 32.78125 
Q 61.53125 27.828125 61.53125 20.40625 
Q 61.53125 10.640625 54.890625 5.3125 
Q 48.25 0 35.984375 0 
L 9.8125 0 
z
" id="DejaVuSans-42"/>
      <path d="M 25.390625 72.90625 
L 33.6875 72.90625 
L 8.296875 -9.28125 
L 0 -9.28125 
z
" id="DejaVuSans-2f"/>
      <path d="M 30.609375 48.390625 
Q 23.390625 48.390625 19.1875 42.75 
Q 14.984375 37.109375 14.984375 27.296875 
Q 14.984375 17.484375 19.15625 11.84375 
Q 23.34375 6.203125 30.609375 6.203125 
Q 37.796875 6.203125 41.984375 11.859375 
Q 46.1875 17.53125 46.1875 27.296875 
Q 46.1875 37.015625 41.984375 42.703125 
Q 37.796875 48.390625 30.609375 48.390625 
z
M 30.609375 56 
Q 42.328125 56 49.015625 48.375 
Q 55.71875 40.765625 55.71875 27.296875 
Q 55.71875 13.875 49.015625 6.21875 
Q 42.328125 -1.421875 30.609375 -1.421875 
Q 18.84375 -1.421875 12.171875 6.21875 
Q 5.515625 13.875 5.515625 27.296875 
Q 5.515625 40.765625 12.171875 48.375 
Q 18.84375 56 30.609375 56 
z
" id="DejaVuSans-6f"/>
      <path d="M 34.28125 27.484375 
Q 23.390625 27.484375 19.1875 25 
Q 14.984375 22.515625 14.984375 16.5 
Q 14.984375 11.71875 18.140625 8.90625 
Q 21.296875 6.109375 26.703125 6.109375 
Q 34.1875 6.109375 38.703125 11.40625 
Q 43.21875 16.703125 43.21875 25.484375 
L 43.21875 27.484375 
z
M 52.203125 31.203125 
L 52.203125 0 
L 43.21875 0 
L 43.21875 8.296875 
Q 40.140625 3.328125 35.546875 0.953125 
Q 30.953125 -1.421875 24.3125 -1.421875 
Q 15.921875 -1.421875 10.953125 3.296875 
Q 6 8.015625 6 15.921875 
Q 6 25.140625 12.171875 29.828125 
Q 18.359375 34.515625 30.609375 34.515625 
L 43.21875 34.515625 
L 43.21875 35.40625 
Q 43.21875 41.609375 39.140625 45 
Q 35.0625 48.390625 27.6875 48.390625 
Q 23 48.390625 18.546875 47.265625 
Q 14.109375 46.140625 10.015625 43.890625 
L 10.015625 52.203125 
Q 14.9375 54.109375 19.578125 55.046875 
Q 24.21875 56 28.609375 56 
Q 40.484375 56 46.34375 49.84375 
Q 52.203125 43.703125 52.203125 31.203125 
z
" id="DejaVuSans-61"/>
      <path d="M 9.421875 75.984375 
L 18.40625 75.984375 
L 18.40625 0 
L 9.421875 0 
z
" id="DejaVuSans-6c"/>
     </defs>
     <g transform="translate(21.518438 102.955469)rotate(-90)scale(0.1 -0.1)">
      <use xlink:href="#DejaVuSans-70"/>
      <use x="63.476562" xlink:href="#DejaVuSans-53"/>
      <use x="126.953125" xlink:href="#DejaVuSans-55"/>
      <use x="200.146484" xlink:href="#DejaVuSans-42"/>
      <use x="268.75" xlink:href="#DejaVuSans-2f"/>
      <use x="302.441406" xlink:href="#DejaVuSans-74"/>
      <use x="341.650391" xlink:href="#DejaVuSans-6f"/>
      <use x="402.832031" xlink:href="#DejaVuSans-74"/>
      <use x="442.041016" xlink:href="#DejaVuSans-61"/>
      <use x="503.320312" xlink:href="#DejaVuSans-6c"/>
     </g>
    </g>
   </g>
   <g id="line2d_11">
    <path clip-path="url(#p8d6d8f7fee)" d="M 56.86375 125.670495 
L 90.199523 125.569405 
L 106.038631 125.231878 
L 168.425561 123.669096 
L 203.904525 123.122374 
L 250.566813 122.638396 
L 271.421275 122.480074 
L 271.421275 122.480074 
" style="fill:none;stroke:#1f77b4;stroke-linecap:square;stroke-width:3;"/>
   </g>
   <g id="line2d_12">
    <path clip-path="url(#p8d6d8f7fee)" d="M 56.86375 89.764662 
L 81.568396 89.65766 
L 87.018486 89.382215 
L 91.780901 88.921072 
L 96.052525 88.299903 
L 100.499948 87.432981 
L 105.29055 86.255082 
L 110.284059 84.783161 
L 115.921576 82.868635 
L 121.953717 80.592225 
L 130.596474 77.071199 
L 158.084546 65.681172 
L 166.684523 62.41943 
L 176.143302 59.084222 
L 184.684409 56.309347 
L 193.309092 53.730247 
L 202.887363 51.111707 
L 211.8511 48.879888 
L 221.768426 46.638511 
L 232.363859 44.483351 
L 243.6374 42.433136 
L 255.86453 40.459866 
L 267.477125 38.798079 
L 271.421275 38.276153 
L 271.421275 38.276153 
" style="fill:none;stroke:#ff7f0e;stroke-linecap:square;stroke-width:3;"/>
   </g>
   <g id="patch_3">
    <path d="M 56.86375 138.04 
L 56.86375 14.76 
" style="fill:none;stroke:#000000;stroke-linecap:square;stroke-linejoin:miter;stroke-width:1.5;"/>
   </g>
   <g id="patch_4">
    <path d="M 26.3 138.04 
L 270.81 138.04 
" style="fill:none;stroke:#000000;stroke-linecap:square;stroke-linejoin:miter;stroke-width:1.5;"/>
   </g>
  </g>
 </g>
 <defs>
  <clipPath id="p8d6d8f7fee">
   <rect height="123.28" width="244.51" x="26.3" y="14.76"/>
  </clipPath>
 </defs>
</svg>
